<?xml version="1.0" standalone="no"?>
<!DOCTYPE svg PUBLIC "-//W3C//DTD SVG 20010904//EN"
 "http://www.w3.org/TR/2001/REC-SVG-20010904/DTD/svg10.dtd">
<svg version="1.0" xmlns="http://www.w3.org/2000/svg"
 width="256.000000pt" height="256.000000pt" viewBox="0 0 256.000000 256.000000"
 preserveAspectRatio="xMidYMid meet">
<metadata>
Created by potrace 1.14, written by Peter Selinger 2001-2017
</metadata>
<g transform="translate(0.000000,256.000000) scale(0.100000,-0.100000)"
fill="#000000" stroke="none">
<path d="M1010 1800 c0 -104 -2 -190 -4 -190 -2 0 -30 12 -62 27 -52 24 -71
27 -164 28 -93 0 -111 -3 -161 -26 -157 -74 -227 -217 -216 -439 7 -134 26
-189 92 -256 58 -59 111 -80 222 -90 93 -9 177 9 248 51 56 34 65 32 65 -16 0
-17 8 -19 80 -19 l80 0 -2 558 -3 557 -87 3 -88 3 0 -191z m-89 -289 c92 -35
89 -27 89 -247 l0 -194 -42 -30 c-55 -40 -108 -53 -194 -48 -90 6 -139 33
-165 94 -52 117 -25 319 53 391 58 55 167 69 259 34z"/>
<path d="M1603 1660 c-153 -32 -222 -107 -231 -251 -6 -105 15 -166 74 -218
l45 -39 -37 -23 c-39 -24 -73 -85 -74 -132 0 -47 28 -92 73 -118 39 -22 54
-24 243 -29 223 -6 234 -9 234 -67 0 -30 -5 -36 -37 -50 -55 -23 -299 -20
-415 5 l-88 18 0 -67 c0 -37 3 -70 8 -73 29 -18 184 -37 302 -38 276 0 400 65
400 210 0 64 -13 98 -53 140 -48 50 -104 62 -293 62 -145 0 -164 2 -185 19
-23 19 -23 21 -9 48 25 46 62 57 190 58 63 1 133 7 156 13 59 17 120 65 145
113 42 83 42 203 -1 261 l-20 27 63 3 62 3 3 56 3 57 -168 6 c-92 3 -208 8
-258 10 -49 3 -109 1 -132 -4z m244 -127 c63 -29 90 -134 60 -223 -18 -52 -79
-80 -177 -80 -139 1 -190 44 -190 162 0 75 24 122 73 143 47 21 190 19 234 -2z"/>
</g>
</svg>
